Please Seed 

Complete name                            : C:UsersPhr0stYDesktopThe Cleveland ShowsS04E18 The Cleveland Show (1280x720) [Phr0stY].mkv
Format                                   : Matroska
Format version                           : Version 4 / Version 2
File size                                : 196 MiB
Duration                                 : 21mn 37s
Overall bit rate                         : 1 267 Kbps
Encoded date                             : UTC 2013-04-22 01:08:56
Writing application                      : mkvmerge v6.0.0 ('Coming Up For Air') built on Jan 20 2013 09:52:00
Writing library                          : libebml v1.3.0 + libmatroska v1.4.0

Video
ID                                       : 1
Format                                   : AVC
Format/Info                              : Advanced Video Codec
Format profile                           : High@L4.1
Format settings, CABAC                   : Yes
Format settings, ReFrames                : 9 frames
Codec ID                                 : V_MPEG4/ISO/AVC
Duration                                 : 21mn 37s
Bit rate                                 : 794 Kbps
Width                                    : 1280 pixels
Height                                   : 720 pixels
Display aspect ratio                     : 16:9
Frame rate mode                          : Constant
Frame rate                               : 23.976 fps
Color space                              : YUV
Chroma subsampling                       : 4:2:0
Bit depth                                : 8 bits
Scan type                                : Progressive
Bits/(Pixel*Frame)                       : 0.036
Stream size                              : 123 MiB (63%)
Writing library                          : x264 core 130 r2273 b3065e6
Encoding settings                        : cabac=1 / ref=9 / deblock=1:2:2 / analyse=0x3:0x133 / me=umh / subme=11 / psy=1 / psy_rd=0.40:0.00 / mixed_ref=1 / me_range=32 / chroma_me=1 / trellis=2 / 8x8dct=1 / cqm=0 / deadzone=21,11 / fast_pskip=0 / chroma_qp_offset=-2 / threads=10 / lookahead_threads=1 / sliced_threads=0 / nr=0 / decimate=1 / interlaced=0 / bluray_compat=0 / constrained_intra=0 / bframes=5 / b_pyramid=2 / b_adapt=2 / b_bias=0 / direct=3 / weightb=1 / open_gop=0 / weightp=2 / keyint=250 / keyint_min=23 / scenecut=40 / intra_refresh=0 / rc_lookahead=60 / rc=crf / mbtree=1 / crf=18.0 / qcomp=0.60 / qpmin=0 / qpmax=69 / qpstep=4 / ip_ratio=1.40 / aq=1:0.60
Language                                 : English
Default                                  : No
Forced                                   : No
Matrix coefficients                      : BT.709

Audio
ID                                       : 2
Format                                   : AC-3
Format/Info                              : Audio Coding 3
Mode extension                           : CM (complete main)
Format settings, Endianness              : Big
Codec ID                                 : A_AC3
Duration                                 : 21mn 37s
Bit rate mode                            : Constant
Bit rate                                 : 448 Kbps
Channel(s)                               : 6 channels
Channel positions                        : Front: L C R, Side: L R, LFE
Sampling rate                            : 48.0 KHz
Bit depth                                : 16 bits
Compression mode                         : Lossy
Stream size                              : 69.3 MiB (35%)
Default                                  : Yes
Forced                                   : No

